{
    "asset" : {
        "generator" : "Khronos glTF Blender I/O v1.2.75",
        "version" : "2.0"
    },
    "scene" : 0,
    "scenes" : [
        {
            "name" : "Scene",
            "nodes" : [
                0,
                1,
                5
            ]
        }
    ],
    "nodes" : [
        {
            "name" : "Light",
            "rotation" : [
                0.16907575726509094,
                0.7558803558349609,
                -0.27217137813568115,
                0.570947527885437
            ],
            "translation" : [
                4.076245307922363,
                5.903861999511719,
                -1.0054539442062378
            ]
        },
        {
            "name" : "Camera",
            "rotation" : [
                0.483536034822464,
                0.33687159419059753,
                -0.20870360732078552,
                0.7804827094078064
            ],
            "translation" : [
                7.358891487121582,
                4.958309173583984,
                6.925790786743164
            ]
        },
        {
            "mesh" : 0,
            "name" : "Body"
        },
        {
            "mesh" : 1,
            "name" : "Label1"
        },
        {
            "mesh" : 2,
            "name" : "Strips"
        },
        {
            "children" : [
                2,
                3,
                4
            ],
            "name" : "LLS_4000",
            "rotation" : [
                0.7071068286895752,
                0,
                0,
                0.7071067094802856
            ],
            "scale" : [
                0.10000000149011612,
                0.10000000149011612,
                0.10000000149011612
            ]
        }
    ],
    "materials" : [
        {
            "doubleSided" : true,
            "emissiveFactor" : [
                0,
                0,
                0
            ],
            "name" : "Steel",
            "pbrMetallicRoughness" : {
                "baseColorFactor" : [
                    0.7881887555122375,
                    0.7881887555122375,
                    0.7881887555122375,
                    1
                ],
                "metallicFactor" : 1,
                "roughnessFactor" : 0.18460460007190704
            }
        },
        {
            "alphaMode" : "BLEND",
            "doubleSided" : true,
            "emissiveFactor" : [
                0,
                0,
                0
            ],
            "name" : "Plastic",
            "pbrMetallicRoughness" : {
                "baseColorTexture" : {
                    "index" : 0,
                    "texCoord" : 0
                },
                "metallicFactor" : 0,
                "roughnessFactor" : 0.20000000298023224
            }
        },
        {
            "doubleSided" : true,
            "emissiveFactor" : [
                0,
                0,
                0
            ],
            "name" : "Label.001",
            "pbrMetallicRoughness" : {
                "baseColorTexture" : {
                    "index" : 1,
                    "texCoord" : 0
                },
                "metallicFactor" : 1,
                "roughnessFactor" : 0.5527864098548889
            }
        },
        {
            "doubleSided" : true,
            "emissiveFactor" : [
                0,
                0,
                0
            ],
            "name" : "Steel.001",
            "pbrMetallicRoughness" : {
                "baseColorFactor" : [
                    0.10196078568696976,
                    0.10196078568696976,
                    0.10196078568696976,
                    1
                ],
                "metallicFactor" : 0,
                "roughnessFactor" : 0
            }
        }
    ],
    "meshes" : [
        {
            "name" : "Mesh.004",
            "primitives" : [
                {
                    "attributes" : {
                        "POSITION" : 0,
                        "NORMAL" : 1,
                        "TEXCOORD_0" : 2
                    },
                    "indices" : 3,
                    "material" : 0
                },
                {
                    "attributes" : {
                        "POSITION" : 4,
                        "NORMAL" : 5,
                        "TEXCOORD_0" : 6
                    },
                    "indices" : 7,
                    "material" : 1
                }
            ]
        },
        {
            "name" : "Mesh.003",
            "primitives" : [
                {
                    "attributes" : {
                        "POSITION" : 8,
                        "NORMAL" : 9,
                        "TEXCOORD_0" : 10
                    },
                    "indices" : 11,
                    "material" : 2
                }
            ]
        },
        {
            "name" : "Mesh.002",
            "primitives" : [
                {
                    "attributes" : {
                        "POSITION" : 12,
                        "NORMAL" : 13,
                        "TEXCOORD_0" : 14
                    },
                    "indices" : 15,
                    "material" : 3
                }
            ]
        }
    ],
    "textures" : [
        {
            "source" : 0
        },
        {
            "source" : 1
        }
    ],
    "images" : [
        {
            "bufferView" : 8,
            "mimeType" : "image/png",
            "name" : "Glass_Trans"
        },
        {
            "bufferView" : 13,
            "mimeType" : "image/png",
            "name" : "LLS4000_Label"
        }
    ],
    "accessors" : [
        {
            "bufferView" : 0,
            "componentType" : 5126,
            "count" : 59402,
            "max" : [
                1.7997726202011108,
                1.6999999284744263,
                -0.24809575080871582
            ],
            "min" : [
                -1.7997721433639526,
                -1.6999999284744263,
                -14.485095024108887
            ],
            "type" : "VEC3"
        },
        {
            "bufferView" : 1,
            "componentType" : 5126,
            "count" : 59402,
            "type" : "VEC3"
        },
        {
            "bufferView" : 2,
            "componentType" : 5126,
            "count" : 59402,
            "type" : "VEC2"
        },
        {
            "bufferView" : 3,
            "componentType" : 5123,
            "count" : 60771,
            "type" : "SCALAR"
        },
        {
            "bufferView" : 4,
            "componentType" : 5126,
            "count" : 2279,
            "max" : [
                1.800000548362732,
                1.7964481115341187,
                -7.355096340179443
            ],
            "min" : [
                -1.7999995946884155,
                -1.7964481115341187,
                -13.255095481872559
            ],
            "type" : "VEC3"
        },
        {
            "bufferView" : 5,
            "componentType" : 5126,
            "count" : 2279,
            "type" : "VEC3"
        },
        {
            "bufferView" : 6,
            "componentType" : 5126,
            "count" : 2279,
            "type" : "VEC2"
        },
        {
            "bufferView" : 7,
            "componentType" : 5123,
            "count" : 2313,
            "type" : "SCALAR"
        },
        {
            "bufferView" : 9,
            "componentType" : 5126,
            "count" : 1305,
            "max" : [
                1.5746979713439941,
                1.579851746559143,
                -9.755094528198242
            ],
            "min" : [
                -1.578412652015686,
                -1.579851746559143,
                -12.755094528198242
            ],
            "type" : "VEC3"
        },
        {
            "bufferView" : 10,
            "componentType" : 5126,
            "count" : 1305,
            "type" : "VEC3"
        },
        {
            "bufferView" : 11,
            "componentType" : 5126,
            "count" : 1305,
            "type" : "VEC2"
        },
        {
            "bufferView" : 12,
            "componentType" : 5123,
            "count" : 1404,
            "type" : "SCALAR"
        },
        {
            "bufferView" : 14,
            "componentType" : 5126,
            "count" : 7232,
            "max" : [
                1.399999976158142,
                1.399993896484375,
                -1.893733024597168
            ],
            "min" : [
                -1.3999693393707275,
                -1.3998196125030518,
                -3.293735980987549
            ],
            "type" : "VEC3"
        },
        {
            "bufferView" : 15,
            "componentType" : 5126,
            "count" : 7232,
            "type" : "VEC3"
        },
        {
            "bufferView" : 16,
            "componentType" : 5126,
            "count" : 7232,
            "type" : "VEC2"
        },
        {
            "bufferView" : 17,
            "componentType" : 5123,
            "count" : 21636,
            "type" : "SCALAR"
        }
    ],
    "bufferViews" : [
        {
            "buffer" : 0,
            "byteLength" : 712824,
            "byteOffset" : 0
        },
        {
            "buffer" : 0,
            "byteLength" : 712824,
            "byteOffset" : 712824
        },
        {
            "buffer" : 0,
            "byteLength" : 475216,
            "byteOffset" : 1425648
        },
        {
            "buffer" : 0,
            "byteLength" : 121542,
            "byteOffset" : 1900864
        },
        {
            "buffer" : 0,
            "byteLength" : 27348,
            "byteOffset" : 2022408
        },
        {
            "buffer" : 0,
            "byteLength" : 27348,
            "byteOffset" : 2049756
        },
        {
            "buffer" : 0,
            "byteLength" : 18232,
            "byteOffset" : 2077104
        },
        {
            "buffer" : 0,
            "byteLength" : 4626,
            "byteOffset" : 2095336
        },
        {
            "buffer" : 0,
            "byteLength" : 4535,
            "byteOffset" : 2099964
        },
        {
            "buffer" : 0,
            "byteLength" : 15660,
            "byteOffset" : 2104500
        },
        {
            "buffer" : 0,
            "byteLength" : 15660,
            "byteOffset" : 2120160
        },
        {
            "buffer" : 0,
            "byteLength" : 10440,
            "byteOffset" : 2135820
        },
        {
            "buffer" : 0,
            "byteLength" : 2808,
            "byteOffset" : 2146260
        },
        {
            "buffer" : 0,
            "byteLength" : 112423,
            "byteOffset" : 2149068
        },
        {
            "buffer" : 0,
            "byteLength" : 86784,
            "byteOffset" : 2261492
        },
        {
            "buffer" : 0,
            "byteLength" : 86784,
            "byteOffset" : 2348276
        },
        {
            "buffer" : 0,
            "byteLength" : 57856,
            "byteOffset" : 2435060
        },
        {
            "buffer" : 0,
            "byteLength" : 43272,
            "byteOffset" : 2492916
        }
    ],
    "buffers" : [
        {
            "byteLength" : 2536188,
            "uri" : "data:application/octet-stream;base64,"
        }
    ]
}
