{
    "asset" : {
        "generator" : "Khronos glTF Blender I/O v1.2.75",
        "version" : "2.0"
    },
    "scene" : 0,
    "scenes" : [
        {
            "name" : "Scene",
            "nodes" : [
                0,
                1,
                4
            ]
        }
    ],
    "nodes" : [
        {
            "name" : "Light",
            "rotation" : [
                0.16907575726509094,
                0.7558803558349609,
                -0.27217137813568115,
                0.570947527885437
            ],
            "translation" : [
                4.076245307922363,
                5.903861999511719,
                -1.0054539442062378
            ]
        },
        {
            "name" : "Camera",
            "rotation" : [
                0.483536034822464,
                0.33687159419059753,
                -0.20870360732078552,
                0.7804827094078064
            ],
            "translation" : [
                7.358891487121582,
                4.958309173583984,
                6.925790786743164
            ]
        },
        {
            "mesh" : 0,
            "name" : "Solid1"
        },
        {
            "children" : [
                2
            ],
            "name" : "WEB068U9183.001",
            "translation" : [
                -0.10665935277938843,
                0.049212560057640076,
                0.48153191804885864
            ]
        },
        {
            "children" : [
                3
            ],
            "name" : "WEB068U9183",
            "rotation" : [
                0.4999999701976776,
                0.4999999701976776,
                -0.5000001192092896,
                0.4999999403953552
            ],
            "scale" : [
                0.10000000149011612,
                0.10000000149011612,
                0.10000000149011612
            ],
            "translation" : [
                0,
                0.25836747884750366,
                0
            ]
        }
    ],
    "materials" : [
        {
            "doubleSided" : true,
            "emissiveFactor" : [
                0,
                0,
                0
            ],
            "name" : "Material #30",
            "pbrMetallicRoughness" : {
                "baseColorFactor" : [
                    0.46207717061042786,
                    0.38132601976394653,
                    0.054480306804180145,
                    1
                ],
                "metallicFactor" : 0.9090909361839294,
                "roughnessFactor" : 0.21642273664474487
            }
        },
        {
            "doubleSided" : true,
            "emissiveFactor" : [
                0,
                0,
                0
            ],
            "name" : "Copper",
            "pbrMetallicRoughness" : {
                "baseColorFactor" : [
                    0.4793202877044678,
                    0.17144112288951874,
                    0.0331047959625721,
                    1
                ],
                "metallicFactor" : 0.9090908765792847,
                "roughnessFactor" : 0.14824095368385315
            }
        },
        {
            "doubleSided" : true,
            "emissiveFactor" : [
                0,
                0,
                0
            ],
            "name" : "Steel",
            "pbrMetallicRoughness" : {
                "baseColorFactor" : [
                    0.7418330907821655,
                    0.7647200226783752,
                    0.7647200226783752,
                    1
                ],
                "metallicFactor" : 1,
                "roughnessFactor" : 0.16363635659217834
            }
        }
    ],
    "meshes" : [
        {
            "name" : "Mesh",
            "primitives" : [
                {
                    "attributes" : {
                        "POSITION" : 0,
                        "NORMAL" : 1,
                        "TEXCOORD_0" : 2
                    },
                    "indices" : 3,
                    "material" : 0
                },
                {
                    "attributes" : {
                        "POSITION" : 4,
                        "NORMAL" : 5,
                        "TEXCOORD_0" : 6
                    },
                    "indices" : 7,
                    "material" : 1
                },
                {
                    "attributes" : {
                        "POSITION" : 8,
                        "NORMAL" : 9,
                        "TEXCOORD_0" : 10
                    },
                    "indices" : 11,
                    "material" : 2
                }
            ]
        }
    ],
    "accessors" : [
        {
            "bufferView" : 0,
            "componentType" : 5126,
            "count" : 130,
            "max" : [
                0.7677092552185059,
                0.7677164673805237,
                -0.02180611342191696
            ],
            "min" : [
                -0.7673100829124451,
                -0.7668818235397339,
                -0.17665046453475952
            ],
            "type" : "VEC3"
        },
        {
            "bufferView" : 1,
            "componentType" : 5126,
            "count" : 130,
            "type" : "VEC3"
        },
        {
            "bufferView" : 2,
            "componentType" : 5126,
            "count" : 130,
            "type" : "VEC2"
        },
        {
            "bufferView" : 3,
            "componentType" : 5123,
            "count" : 378,
            "type" : "SCALAR"
        },
        {
            "bufferView" : 4,
            "componentType" : 5126,
            "count" : 396,
            "max" : [
                0.2597907781600952,
                1.496062994003296,
                1.3450976610183716
            ],
            "min" : [
                -0.2597907781600952,
                -1.3976378440856934,
                0.27242201566696167
            ],
            "type" : "VEC3"
        },
        {
            "bufferView" : 5,
            "componentType" : 5126,
            "count" : 396,
            "type" : "VEC3"
        },
        {
            "bufferView" : 6,
            "componentType" : 5126,
            "count" : 396,
            "type" : "VEC2"
        },
        {
            "bufferView" : 7,
            "componentType" : 5123,
            "count" : 1116,
            "type" : "SCALAR"
        },
        {
            "bufferView" : 8,
            "componentType" : 5126,
            "count" : 17848,
            "max" : [
                1.464566946029663,
                1.496062994003296,
                2.0831944942474365
            ],
            "min" : [
                -1.67788565158844,
                -1.3976378440856934,
                -1.1201306581497192
            ],
            "type" : "VEC3"
        },
        {
            "bufferView" : 9,
            "componentType" : 5126,
            "count" : 17848,
            "type" : "VEC3"
        },
        {
            "bufferView" : 10,
            "componentType" : 5126,
            "count" : 17848,
            "type" : "VEC2"
        },
        {
            "bufferView" : 11,
            "componentType" : 5123,
            "count" : 79794,
            "type" : "SCALAR"
        }
    ],
    "bufferViews" : [
        {
            "buffer" : 0,
            "byteLength" : 1560,
            "byteOffset" : 0
        },
        {
            "buffer" : 0,
            "byteLength" : 1560,
            "byteOffset" : 1560
        },
        {
            "buffer" : 0,
            "byteLength" : 1040,
            "byteOffset" : 3120
        },
        {
            "buffer" : 0,
            "byteLength" : 756,
            "byteOffset" : 4160
        },
        {
            "buffer" : 0,
            "byteLength" : 4752,
            "byteOffset" : 4916
        },
        {
            "buffer" : 0,
            "byteLength" : 4752,
            "byteOffset" : 9668
        },
        {
            "buffer" : 0,
            "byteLength" : 3168,
            "byteOffset" : 14420
        },
        {
            "buffer" : 0,
            "byteLength" : 2232,
            "byteOffset" : 17588
        },
        {
            "buffer" : 0,
            "byteLength" : 214176,
            "byteOffset" : 19820
        },
        {
            "buffer" : 0,
            "byteLength" : 214176,
            "byteOffset" : 233996
        },
        {
            "buffer" : 0,
            "byteLength" : 142784,
            "byteOffset" : 448172
        },
        {
            "buffer" : 0,
            "byteLength" : 159588,
            "byteOffset" : 590956
        }
    ],
    "buffers" : [
        {
            "byteLength" : 750544,
            "uri" : "data:application/octet-stream;base64,"
        }
    ]
}
